<svg width="100" height="162" viewBox="0 0 100 162" fill="none" xmlns="http://www.w3.org/2000/svg">
<path d="M32.002 71.0215H46.1816C53.1283 71.0215 58.8574 69.8757 63.3691 67.584C67.9525 65.2207 71.3542 62.0339 73.5742 58.0234C75.8659 53.9414 77.0117 49.3581 77.0117 44.2734C77.0117 38.2578 76.0091 33.209 74.0039 29.127C71.9987 25.0449 68.9909 21.9655 64.9805 19.8887C60.9701 17.8118 55.8854 16.7734 49.7266 16.7734C44.1406 16.7734 39.1992 17.8835 34.9023 20.1035C30.6771 22.252 27.347 25.3314 24.9121 29.3418C22.5488 33.3522 21.3672 38.0788 21.3672 43.5215H1.49414C1.49414 35.5723 3.49935 28.3392 7.50977 21.8223C11.5202 15.3053 17.1419 10.1133 24.375 6.24609C31.6797 2.37891 40.1302 0.445312 49.7266 0.445312C59.1797 0.445312 67.4512 2.12826 74.541 5.49414C81.6309 8.78841 87.1452 13.7298 91.084 20.3184C95.0228 26.8353 96.9922 34.9635 96.9922 44.7031C96.9922 48.6419 96.0612 52.8672 94.1992 57.3789C92.4089 61.819 89.5801 65.9727 85.7129 69.8398C81.9173 73.707 76.9759 76.8939 70.8887 79.4004C64.8014 81.8353 57.4967 83.0527 48.9746 83.0527H32.002V71.0215ZM32.002 87.3496V75.4258H48.9746C58.929 75.4258 67.1647 76.6074 73.6816 78.9707C80.1986 81.334 85.319 84.485 89.043 88.4238C92.8385 92.3626 95.4883 96.6953 96.9922 101.422C98.5677 106.077 99.3555 110.732 99.3555 115.387C99.3555 122.691 98.1022 129.173 95.5957 134.83C93.1608 140.488 89.6875 145.286 85.1758 149.225C80.7357 153.163 75.5078 156.135 69.4922 158.141C63.4766 160.146 56.9238 161.148 49.834 161.148C43.0306 161.148 36.6211 160.182 30.6055 158.248C24.6615 156.314 19.3978 153.521 14.8145 149.869C10.2311 146.145 6.65039 141.598 4.07227 136.227C1.49414 130.784 0.205078 124.589 0.205078 117.643H20.0781C20.0781 123.085 21.2598 127.848 23.623 131.93C26.0579 136.012 29.4954 139.199 33.9355 141.49C38.4473 143.71 43.7467 144.82 49.834 144.82C55.9212 144.82 61.1491 143.782 65.5176 141.705C69.9577 139.557 73.3594 136.334 75.7227 132.037C78.1576 127.74 79.375 122.333 79.375 115.816C79.375 109.299 78.0143 103.964 75.293 99.8105C72.5716 95.5853 68.7044 92.4701 63.6914 90.4648C58.75 88.388 52.9134 87.3496 46.1816 87.3496H32.002Z" fill="#EF8094"/>
</svg>
