<svg width="106" height="159" viewBox="0 0 106 159" fill="none" xmlns="http://www.w3.org/2000/svg">
<path d="M105.478 142.672V159H3.10541V144.713L54.3456 87.6719C60.6477 80.6536 65.5175 74.7096 68.955 69.8398C72.4641 64.8984 74.899 60.4941 76.2597 56.627C77.692 52.6882 78.4081 48.6777 78.4081 44.5957C78.4081 39.4395 77.3339 34.7845 75.1855 30.6309C73.1087 26.4056 70.0292 23.0397 65.9472 20.5332C61.8652 18.0267 56.9238 16.7734 51.123 16.7734C44.1764 16.7734 38.3756 18.1341 33.7206 20.8555C29.1373 23.5052 25.6998 27.2292 23.4081 32.0273C21.1165 36.8255 19.9706 42.3398 19.9706 48.5703H0.0975952C0.0975952 39.7617 2.03119 31.7051 5.89838 24.4004C9.76556 17.0957 15.4947 11.2949 23.0859 6.99805C30.677 2.62956 40.0227 0.445312 51.123 0.445312C61.0058 0.445312 69.4563 2.19987 76.4745 5.70898C83.4928 9.14648 88.8639 14.0163 92.5878 20.3184C96.3834 26.5488 98.2812 33.8535 98.2812 42.2324C98.2812 46.8158 97.4934 51.4707 95.9179 56.1973C94.414 60.8522 92.3014 65.5072 89.58 70.1621C86.9303 74.8171 83.815 79.4004 80.2343 83.9121C76.7252 88.4238 72.9654 92.8639 68.955 97.2324L27.0605 142.672H105.478Z" fill="#EF8094"/>
</svg>
